<svg width="20" height="21" viewBox="0 0 20 21" fill="none" xmlns="http://www.w3.org/2000/svg">
<g id="Social Network/Facebook">
<path id="Facebook" fill-rule="evenodd" clip-rule="evenodd" d="M18 0H2C0.89543 0 0 0.92126 0 2.05769V18.5192C0 19.6557 0.89543 20.5769 2 20.5769H18C19.1046 20.5769 20 19.6557 20 18.5192V2.05769C20 0.92126 19.1046 0 18 0ZM10 12.8302V20.5768H13V12.8302H15.5629L15.9741 9.92519H13V8.68379C13 7.57022 13.3053 7.02021 14.339 7.02021H16V4.24208L15.9825 4.2397C15.6836 4.199 15.0684 4.11523 13.925 4.11523C11.4897 4.11523 10 5.41182 10 8.36521V9.92519H7V12.8302H10Z" fill="#304659"/>
</g>
</svg>
