<svg width="20" height="21" viewBox="0 0 20 21" fill="none" xmlns="http://www.w3.org/2000/svg">
<g id="Social Network/Instagram">
<path id="Instagram" fill-rule="evenodd" clip-rule="evenodd" d="M6 0H14C17.3137 0 20 2.76378 20 6.17307V14.4038C20 17.8131 17.3137 20.5769 14 20.5769H6C2.68629 20.5769 0 17.8131 0 14.4038V6.17307C0 2.76378 2.68629 0 6 0ZM16 3.08594C16.5 3.08594 17 3.60036 17 4.11478C17 4.62921 16.5 5.14363 16 5.14363C15.5 5.14363 15 4.62921 15 4.11478C15 3.60036 15.5 3.08594 16 3.08594ZM15 10.2888C15 7.45172 12.7575 5.14453 10 5.14453C7.2425 5.14453 5 7.45172 5 10.2888C5 13.1258 7.2425 15.433 10 15.433C12.7575 15.433 15 13.1258 15 10.2888ZM10 7.20117C8.34315 7.20117 7 8.58306 7 10.2877C7 11.9924 8.34315 13.3742 10 13.3742C11.6569 13.3742 13 11.9924 13 10.2877C13 8.58306 11.6569 7.20117 10 7.20117Z" fill="#304659"/>
</g>
</svg>
