<svg width="20" height="21" viewBox="0 0 20 21" fill="none" xmlns="http://www.w3.org/2000/svg">
<g id="Social Network/Linkedin">
<path id="Linkedin" fill-rule="evenodd" clip-rule="evenodd" d="M18 0H2C0.89543 0 0 0.92126 0 2.05769V18.5192C0 19.6557 0.89543 20.5769 2 20.5769H18C19.1046 20.5769 20 19.6557 20 18.5192V2.05769C20 0.92126 19.1046 0 18 0ZM4 4.69509C4 5.58345 4.70032 6.30518 5.56637 6.30518C6.4297 6.30518 7.13184 5.58345 7.13184 4.69509C7.13184 3.80767 6.4297 3.08594 5.56637 3.08594C4.70123 3.08594 4 3.80673 4 4.69509ZM4.25 16.4616H6.93651V7.57617H4.25V16.4616ZM17.0004 16.4618H14.3157V12.1408C14.3157 11.1102 14.2974 9.78465 12.9196 9.78465C11.5217 9.78465 11.3068 10.907 11.3068 12.0659V16.4618H8.62207V7.57639H11.1993V8.79051H11.2357C11.5945 8.09218 12.4706 7.35547 13.7774 7.35547C16.4977 7.35547 17.0004 9.19584 17.0004 11.5885V16.4618Z" fill="#304659"/>
</g>
</svg>
