<svg width="77" height="92" viewBox="0 0 77 92" fill="none" xmlns="http://www.w3.org/2000/svg">
<line x1="0.75" y1="0.520508" x2="0.75" y2="90.5205" stroke="black" stroke-width="1.5"/>
<line x1="75.75" y1="27.5205" x2="75.75" y2="90.5205" stroke="black" stroke-width="1.5"/>
<path d="M76.5 90.2705L-0.000282288 90.2705" stroke="black" stroke-width="1.5"/>
<line x1="49" y1="1.27051" y2="1.27051" stroke="black" stroke-width="1.5"/>
<line x1="48.75" y1="1.2915" x2="48.75" y2="28.2915" stroke="black" stroke-width="1.5"/>
<path d="M48.5 1.02051L75.9996 27.5206" stroke="black" stroke-width="1.5"/>
<path d="M47.9988 27.7916L76.5 27.7915" stroke="black" stroke-width="1.5"/>
<path d="M34.4432 53.8182V53.6477C34.4621 51.839 34.6515 50.3996 35.0114 49.3295C35.3712 48.2595 35.8826 47.393 36.5455 46.7301C37.2083 46.0672 38.0038 45.4564 38.9318 44.8977C39.4905 44.5568 39.9924 44.1544 40.4375 43.6903C40.8826 43.2169 41.233 42.6723 41.4886 42.0568C41.7538 41.4413 41.8864 40.7595 41.8864 40.0114C41.8864 39.0833 41.6686 38.2784 41.233 37.5966C40.7973 36.9148 40.215 36.3892 39.4858 36.0199C38.7566 35.6506 37.947 35.4659 37.0568 35.4659C36.2803 35.4659 35.5322 35.6269 34.8125 35.9489C34.0928 36.2708 33.4915 36.7775 33.0085 37.4688C32.5256 38.16 32.2462 39.0644 32.1705 40.1818H28.5909C28.6667 38.572 29.0833 37.1941 29.8409 36.0483C30.608 34.9025 31.6165 34.0265 32.8665 33.4205C34.1259 32.8144 35.5227 32.5114 37.0568 32.5114C38.7235 32.5114 40.1723 32.8428 41.4034 33.5057C42.6439 34.1686 43.6004 35.0777 44.2727 36.233C44.9545 37.3883 45.2955 38.7045 45.2955 40.1818C45.2955 41.2235 45.1345 42.1657 44.8125 43.0085C44.5 43.8513 44.0455 44.6042 43.4489 45.267C42.8617 45.9299 42.1515 46.517 41.3182 47.0284C40.4848 47.5492 39.8172 48.0985 39.3153 48.6761C38.8134 49.2443 38.4489 49.9214 38.2216 50.7074C37.9943 51.4934 37.8712 52.4735 37.8523 53.6477V53.8182H34.4432ZM36.2614 62.2273C35.5606 62.2273 34.9593 61.9763 34.4574 61.4744C33.9555 60.9725 33.7045 60.3712 33.7045 59.6705C33.7045 58.9697 33.9555 58.3684 34.4574 57.8665C34.9593 57.3646 35.5606 57.1136 36.2614 57.1136C36.9621 57.1136 37.5634 57.3646 38.0653 57.8665C38.5672 58.3684 38.8182 58.9697 38.8182 59.6705C38.8182 60.1345 38.6998 60.5606 38.4631 60.9489C38.2358 61.3371 37.928 61.6496 37.5398 61.8864C37.161 62.1136 36.7348 62.2273 36.2614 62.2273Z" fill="black"/>
</svg>
