<svg width="27" height="27" viewBox="0 0 27 27" fill="none" xmlns="http://www.w3.org/2000/svg">
<path opacity="0.8" fill-rule="evenodd" clip-rule="evenodd" d="M19.6762 10.2307C19.6762 4.97953 15.4193 0.722656 10.1682 0.722656C4.91703 0.722656 0.660156 4.97953 0.660156 10.2307C0.660156 15.4818 4.91703 19.7387 10.1682 19.7387C12.5232 19.7387 14.6881 18.8756 16.3557 17.4567L16.7506 17.8517V19.0073L24.0645 26.3211L26.2586 24.127L18.9448 16.8131H17.7892L17.3942 16.4182C18.8131 14.7506 19.6762 12.5857 19.6762 10.2307ZM3.58449 10.2294C3.58449 6.57252 6.51002 3.64699 10.1669 3.64699C13.8239 3.64699 16.7494 6.57252 16.7494 10.2294C16.7494 13.8864 13.8239 16.8119 10.1669 16.8119C6.51002 16.8119 3.58449 13.8864 3.58449 10.2294Z" fill="#769BB1"/>
</svg>
