<svg width="20" height="21" viewBox="0 0 20 21" fill="none" xmlns="http://www.w3.org/2000/svg">
<g id="Social Network/Twitter">
<path id="Twitter" fill-rule="evenodd" clip-rule="evenodd" d="M18 0H2C0.89543 0 0 0.92126 0 2.05769V18.5192C0 19.6557 0.89543 20.5769 2 20.5769H18C19.1046 20.5769 20 19.6557 20 18.5192V2.05769C20 0.92126 19.1046 0 18 0ZM15.3502 6.41844C15.9312 6.34935 16.4847 6.19616 17 5.96851C16.615 6.5411 16.1277 7.04406 15.5661 7.44738C15.5715 7.57004 15.5742 7.69324 15.5742 7.81697C15.5742 11.5926 12.686 15.9462 7.40283 15.9462C5.78051 15.9462 4.27126 15.4732 3 14.6628C3.22507 14.6896 3.45391 14.703 3.68544 14.703C5.03154 14.703 6.26995 14.2461 7.25261 13.4796C5.99588 13.4566 4.93516 12.6301 4.56956 11.4951C4.74455 11.5278 4.92493 11.546 5.10961 11.546C5.37183 11.546 5.62598 11.5112 5.86666 11.4459C4.55232 11.1839 3.56267 10.0291 3.56267 8.64452V8.60863C3.94981 8.82234 4.39295 8.9509 4.86354 8.96589C4.09303 8.45383 3.58636 7.57915 3.58636 6.58824C3.58636 6.06386 3.72797 5.57322 3.97458 5.15114C5.39175 6.88015 7.50783 8.01783 9.89474 8.13674C9.84628 7.92838 9.82043 7.70984 9.82043 7.48595C9.82043 5.90852 11.1062 4.62891 12.6925 4.62891C13.5184 4.62891 14.2647 4.97599 14.7886 5.53144C15.4434 5.40289 16.0583 5.16507 16.6129 4.8378C16.3986 5.5052 15.9436 6.06493 15.3502 6.41844Z" fill="#304659"/>
</g>
</svg>
